0
SECTION
2
HEADER
9
$ACADVER
1
AC1014
0
ENDSEC
0
SECTION
2
TABLES
0
TABLE
2
LTYPE
70
1
0
LTYPE
2
CONTINUOUS
70
0
3
Solid line
72
65
73
0
40
0.0
0
ENDTAB
0
TABLE
2
LAYER
70
3
0
LAYER
2
0
70
0
7
CONTINUOUS
0
LAYER
2
轮廓
70
0
7
CONTINUOUS
0
LAYER
2
标注
70
0
7
CONTINUOUS
0
ENDTAB
0
ENDSEC
0
SECTION
2
ENTITIES
0
POLYLINE
8
轮廓
66
1
70
0
0
VERTEX
8
轮廓
10
600.0000
20
900.0000
30
0.0000
0
VERTEX
8
轮廓
10
709.7143
20
900.0000
30
0.0000
0
VERTEX
8
轮廓
10
709.7143
20
500.0000
30
0.0000
0
VERTEX
8
轮廓
10
600.0000
20
500.0000
30
0.0000
0
VERTEX
8
轮廓
10
600.0000
20
900.0000
30
0.0000
0
SEQEND
0
POLYLINE
8
轮廓
66
1
70
0
0
VERTEX
8
轮廓
10
610.0000
20
900.0000
30
0.0000
0
VERTEX
8
轮廓
10
686.0000
20
900.0000
30
0.0000
0
VERTEX
8
轮廓
10
679.1429
20
660.0000
30
0.0000
0
VERTEX
8
轮廓
10
603.1429
20
660.0000
30
0.0000
0
VERTEX
8
轮廓
10
610.0000
20
900.0000
30
0.0000
0
SEQEND
0
POLYLINE
8
轮廓
66
1
70
0
0
VERTEX
8
轮廓
10
617.1429
20
660.0000
30
0.0000
0
VERTEX
8
轮廓
10
596.0000
20
660.0000
30
0.0000
0
VERTEX
8
轮廓
10
520.0000
20
688.0000
30
0.0000
0
VERTEX
8
轮廓
10
693.1429
20
688.0000
30
0.0000
0
VERTEX
8
轮廓
10
617.1429
20
660.0000
30
0.0000
0
SEQEND
0
POLYLINE
8
轮廓
66
1
70
0
0
VERTEX
8
轮廓
10
588.0000
20
688.0000
30
0.0000
0
VERTEX
8
轮廓
10
708.0000
20
688.0000
30
0.0000
0
VERTEX
8
轮廓
10
708.0000
20
700.0000
30
0.0000
0
VERTEX
8
轮廓
10
588.0000
20
700.0000
30
0.0000
0
VERTEX
8
轮廓
10
588.0000
20
688.0000
30
0.0000
0
SEQEND
0
LINE
8
0
10
648.0000
20
898.0000
30
0
11
648.0000
21
701.0000
31
0
0
TEXT
8
0
10
604.5714
20
780.0000
30
0
40
3.5
1
35:1
72
1
11
604.5714
21
780.0000
31
0
0
TEXT
8
0
10
633.0000
20
704.0000
30
0
40
5
1
正  面
72
1
11
633.0000
21
704.0000
31
0
0
DIMENSION
8
标注
70
1
10
648.0000
20
899.0000
30
0
13
610.0000
23
899.0000
33
0
14
686.0000
24
899.0000
34
0
0
DIMENSION
8
标注
70
1
10
599.1429
20
780.0000
30
0
13
599.1429
23
900.0000
33
0
14
599.1429
24
660.0000
34
0
0
POLYLINE
8
轮廓
66
1
70
0
0
VERTEX
8
轮廓
10
1400.0000
20
900.0000
30
0.0000
0
VERTEX
8
轮廓
10
1469.7143
20
900.0000
30
0.0000
0
VERTEX
8
轮廓
10
1469.7143
20
500.0000
30
0.0000
0
VERTEX
8
轮廓
10
1400.0000
20
500.0000
30
0.0000
0
VERTEX
8
轮廓
10
1400.0000
20
900.0000
30
0.0000
0
SEQEND
0
POLYLINE
8
轮廓
66
1
70
0
0
VERTEX
8
轮廓
10
1410.0000
20
900.0000
30
0.0000
0
VERTEX
8
轮廓
10
1446.0000
20
900.0000
30
0.0000
0
VERTEX
8
轮廓
10
1439.1429
20
660.0000
30
0.0000
0
VERTEX
8
轮廓
10
1403.1429
20
660.0000
30
0.0000
0
VERTEX
8
轮廓
10
1410.0000
20
900.0000
30
0.0000
0
SEQEND
0
POLYLINE
8
轮廓
66
1
70
0
0
VERTEX
8
轮廓
10
1399.1429
20
672.0000
30
0.0000
0
VERTEX
8
轮廓
10
1406.0000
20
672.0000
30
0.0000
0
VERTEX
8
轮廓
10
1460.0000
20
672.0000
30
0.0000
0
VERTEX
8
轮廓
10
1460.0000
20
660.0000
30
0.0000
0
VERTEX
8
轮廓
10
1399.1429
20
660.0000
30
0.0000
0
SEQEND
0
TEXT
8
0
10
1413.0000
20
664.1200
30
0
40
5
1
侧  面
72
1
11
1413.0000
21
664.1200
31
0
0
POLYLINE
8
轮廓
66
1
70
0
0
VERTEX
8
轮廓
10
600.0000
20
-100.0000
30
0.0000
0
VERTEX
8
轮廓
10
720.0000
20
-100.0000
30
0.0000
0
VERTEX
8
轮廓
10
720.0000
20
-54.0000
30
0.0000
0
VERTEX
8
轮廓
10
600.0000
20
-54.0000
30
0.0000
0
VERTEX
8
轮廓
10
600.0000
20
-100.0000
30
0.0000
0
SEQEND
0
TEXT
8
0
10
645.0000
20
-50.0000
30
0
40
5
1
平  面
72
1
11
645.0000
21
-50.0000
31
0
0
LINE
8
轮廓
10
1300.0000
20
600.0000
30
0
11
1500.0000
21
600.0000
31
0
0
TEXT
8
标注
10
1320.0000
20
596.0000
30
0
40
3
1
N1 主筋
72
1
11
1320.0000
21
596.0000
31
0
0
LINE
8
轮廓
10
1340.0000
20
500.0000
30
0
11
1340.0000
21
560.0000
31
0
0
LINE
8
轮廓
10
1380.0000
20
500.0000
30
0
11
1380.0000
21
560.0000
31
0
0
LINE
8
轮廓
10
1420.0000
20
500.0000
30
0
11
1420.0000
21
560.0000
31
0
0
TEXT
8
标注
10
1300.0000
20
496.0000
30
0
40
3
1
箍筋
72
1
11
1300.0000
21
496.0000
31
0
0
ENDSEC
0
EOF
