0
SECTION
2
HEADER
9
$ACADVER
1
AC1014
9
$INSBASE
10
0.0
20
0.0
30
0.0
9
$EXTMIN
10
0.0
20
0.0
30
0.0
9
$EXTMAX
10
200.0
20
120.0
30
0.0
0
ENDSEC
0
SECTION
2
TABLES
0
TABLE
2
LAYER
70
6
0
LAYER
2
WALLS
70
0
62
1
6
CONTINUOUS
0
LAYER
2
DOORS
70
0
62
3
6
CONTINUOUS
0
LAYER
2
WINDOWS
70
0
62
5
6
CONTINUOUS
0
LAYER
2
FURNITURE
70
0
62
6
6
CONTINUOUS
0
LAYER
2
TEXT
70
0
62
7
6
CONTINUOUS
0
LAYER
2
DIM
70
0
62
4
6
CONTINUOUS
0
ENDTAB
0
ENDSEC
0
SECTION
2
ENTITIES
0
LINE
8
WALLS
10
0
20
0
30
0
11
200
21
0
31
0
0
LINE
8
WALLS
10
200
20
0
30
0
11
200
21
120
31
0
0
LINE
8
WALLS
10
200
20
120
30
0
11
0
21
120
31
0
0
LINE
8
WALLS
10
0
20
120
30
0
11
0
21
0
31
0
0
LINE
8
WALLS
10
80
20
0
30
0
11
80
21
70
31
0
0
LINE
8
WALLS
10
80
20
70
30
0
11
200
21
70
31
0
0
LINE
8
WALLS
10
140
20
70
30
0
11
140
21
120
31
0
0
LINE
8
WALLS
10
0
20
50
30
0
11
50
21
50
31
0
0
LINE
8
WALLS
10
50
20
0
30
0
11
50
21
50
31
0
0
ARC
8
DOORS
10
35
20
50
30
0
40
12
50
0
51
90
0
LINE
8
DOORS
10
35
20
50
30
0
11
47
21
50
31
0
0
ARC
8
DOORS
10
94
20
30
30
0
40
14
50
90
51
180
0
LINE
8
DOORS
10
80
20
30
30
0
11
94
21
30
31
0
0
ARC
8
DOORS
10
140
20
70
30
0
40
14
50
0
51
90
0
LINE
8
DOORS
10
140
20
70
30
0
11
154
21
70
31
0
0
ARC
8
DOORS
10
109
20
70
30
0
40
14
50
90
51
180
0
LINE
8
DOORS
10
95
20
70
30
0
11
109
21
70
31
0
0
LINE
8
WINDOWS
10
15
20
119.5
30
0
11
33
21
119.5
31
0
0
LINE
8
WINDOWS
10
15
20
120.5
30
0
11
33
21
120.5
31
0
0
LINE
8
WINDOWS
10
110
20
119.5
30
0
11
128
21
119.5
31
0
0
LINE
8
WINDOWS
10
110
20
120.5
30
0
11
128
21
120.5
31
0
0
LINE
8
WINDOWS
10
165
20
119.5
30
0
11
183
21
119.5
31
0
0
LINE
8
WINDOWS
10
165
20
120.5
30
0
11
183
21
120.5
31
0
0
LINE
8
WINDOWS
10
-0.5
20
20
30
0
11
-0.5
21
34
31
0
0
LINE
8
WINDOWS
10
0.5
20
20
30
0
11
0.5
21
34
31
0
0
LINE
8
WINDOWS
10
-0.5
20
90
30
0
11
-0.5
21
104
31
0
0
LINE
8
WINDOWS
10
0.5
20
90
30
0
11
0.5
21
104
31
0
0
LINE
8
FURNITURE
10
145
20
75
30
0
11
195
21
75
31
0
0
LINE
8
FURNITURE
10
195
20
75
30
0
11
195
21
83
31
0
0
LINE
8
FURNITURE
10
195
20
83
30
0
11
145
21
83
31
0
0
LINE
8
FURNITURE
10
145
20
83
30
0
11
145
21
75
31
0
0
LINE
8
FURNITURE
10
145
20
95
30
0
11
195
21
95
31
0
0
LINE
8
FURNITURE
10
195
20
95
30
0
11
195
21
103
31
0
0
LINE
8
FURNITURE
10
195
20
103
30
0
11
145
21
103
31
0
0
LINE
8
FURNITURE
10
145
20
103
30
0
11
145
21
95
31
0
0
CIRCLE
8
FURNITURE
10
110
20
95
30
0
40
12
0
CIRCLE
8
FURNITURE
10
128.0
20
95.0
30
0
40
4
0
CIRCLE
8
FURNITURE
10
119.0
20
110.5884572681199
30
0
40
4
0
CIRCLE
8
FURNITURE
10
101.0
20
110.5884572681199
30
0
40
4
0
CIRCLE
8
FURNITURE
10
92.0
20
95.0
30
0
40
4
0
CIRCLE
8
FURNITURE
10
101.0
20
79.4115427318801
30
0
40
4
0
CIRCLE
8
FURNITURE
10
119.0
20
79.4115427318801
30
0
40
4
0
POLYLINE
8
FURNITURE
66
1
70
1
10
0
20
0
30
0
0
VERTEX
8
FURNITURE
10
10
20
75
30
0
0
VERTEX
8
FURNITURE
10
60
20
75
30
0
0
VERTEX
8
FURNITURE
10
60
20
95
30
0
0
VERTEX
8
FURNITURE
10
10
20
95
30
0
0
SEQEND
0
LINE
8
FURNITURE
10
14
20
79
30
0
11
26
21
79
31
0
0
LINE
8
FURNITURE
10
26
20
79
30
0
11
26
21
91
31
0
0
LINE
8
FURNITURE
10
26
20
91
30
0
11
14
21
91
31
0
0
LINE
8
FURNITURE
10
14
20
91
30
0
11
14
21
79
31
0
0
LINE
8
FURNITURE
10
30
20
79
30
0
11
42
21
79
31
0
0
LINE
8
FURNITURE
10
42
20
79
30
0
11
42
21
91
31
0
0
LINE
8
FURNITURE
10
42
20
91
30
0
11
30
21
91
31
0
0
LINE
8
FURNITURE
10
30
20
91
30
0
11
30
21
79
31
0
0
LINE
8
FURNITURE
10
46
20
79
30
0
11
58
21
79
31
0
0
LINE
8
FURNITURE
10
58
20
79
30
0
11
58
21
91
31
0
0
LINE
8
FURNITURE
10
58
20
91
30
0
11
46
21
91
31
0
0
LINE
8
FURNITURE
10
46
20
91
30
0
11
46
21
79
31
0
0
LINE
8
FURNITURE
10
90
20
10
30
0
11
130
21
10
31
0
0
LINE
8
FURNITURE
10
130
20
10
30
0
11
130
21
35
31
0
0
LINE
8
FURNITURE
10
130
20
35
30
0
11
90
21
35
31
0
0
LINE
8
FURNITURE
10
90
20
35
30
0
11
90
21
10
31
0
0
LINE
8
FURNITURE
10
95
20
12
30
0
11
125
21
12
31
0
0
LINE
8
FURNITURE
10
125
20
12
30
0
11
125
21
18
31
0
0
LINE
8
FURNITURE
10
125
20
18
30
0
11
95
21
18
31
0
0
LINE
8
FURNITURE
10
95
20
18
30
0
11
95
21
12
31
0
0
CIRCLE
8
FURNITURE
10
25
20
25
30
0
40
6
0
LINE
8
FURNITURE
10
38
20
12
30
0
11
48
21
12
31
0
0
LINE
8
FURNITURE
10
48
20
12
30
0
11
48
21
30
31
0
0
LINE
8
FURNITURE
10
48
20
30
30
0
11
38
21
30
31
0
0
LINE
8
FURNITURE
10
38
20
30
30
0
11
38
21
12
31
0
0
TEXT
8
TEXT
10
20
20
100
30
0
40
4.5
1
LIVING ROOM
0
TEXT
8
TEXT
10
95
20
100
30
0
40
4.5
1
DINING
0
TEXT
8
TEXT
10
155
20
95
30
0
40
4.5
1
KITCHEN
0
TEXT
8
TEXT
10
100
20
20
30
0
40
4.5
1
BEDROOM
0
TEXT
8
TEXT
10
8
20
35
30
0
40
3
1
BATH
0
TEXT
8
TEXT
10
55
20
30
30
0
40
3
1
ENTRY
0
TEXT
8
TEXT
10
155
20
80
30
0
40
3
1
PANTRY
0
TEXT
8
TEXT
10
80
20
-8
30
0
40
5
1
FLOOR PLAN  -  GENERATED SAMPLE
0
LINE
8
DIM
10
0
20
-4
30
0
11
200
21
-4
31
0
0
LINE
8
DIM
10
0
20
-3
30
0
11
0
21
-5
31
0
0
LINE
8
DIM
10
200
20
-3
30
0
11
200
21
-5
31
0
0
TEXT
8
DIM
10
95
20
-3.5
30
0
40
2.5
1
200
0
ENDSEC
0
EOF
